# xmcd CD database file
#
# Track frame offsets:
#	150
#	13001
#	26631
#	37809
#	54039
#	66501
#	79372
#	93535
#	103716
#	111892
#	125170
#	137775
#	155797
#	166677
#	181795
#	194952
#
# Disc length: 2887 seconds
#
# Revision: 0
# Processed by: cddbd v1.5.1PL0 Copyright (c) Steve Scherf et al.
# Submitted via: CDex 1.51
#
DISCID=df0b4510
DTITLE=Various Artist - Delightful Diva's - CD1
DYEAR=2004
DGENRE=Jazz
TTITLE0=Billie Holiday - A Fine Romance
TTITLE1=Ella Fitzgerald - Sing, Song, Swing
TTITLE2=Dinah Washington - What A Difference A Day Makes
TTITLE3=Nina Simone - My Baby Just Cares For Me
TTITLE4=Sarah Vaughan - My Favourite Things
TTITLE5=Peggy Lee - Manana (Is Soon Enough For Me)
TTITLE6=Astrud Gilberto - Love For Sale
TTITLE7=Lena Horne - The Lady Is A Tramp
TTITLE8=Billie Holiday - Lover Come Back To Me
TTITLE9=Ella Fitzgerald - Little White Lies
TTITLE10=Dinah Washington - Cry Me A River
TTITLE11=Nina Simone - Mood Indigo
TTITLE12=Sarah Vaughan - I Cried For You
TTITLE13=Peggy Lee - September In The Rain
TTITLE14=Lena Horne - Honeysuckle Rose
TTITLE15=Carmen McRae - Send In The Clowns
EXTD=YEAR: 2004
EXTT0=
EXTT1=
EXTT2=
EXTT3=
EXTT4=
EXTT5=
EXTT6=
EXTT7=
EXTT8=
EXTT9=
EXTT10=
EXTT11=
EXTT12=
EXTT13=
EXTT14=
EXTT15=
PLAYORDER=
